<mxfile host="app.diagrams.net" modified="2023-05-25T12:04:00.084Z" agent="Mozilla/5.0 (Windows NT 10.0; Win64; x64) AppleWebKit/537.36 (KHTML, like Gecko) Chrome/113.0.0.0 Safari/537.36" version="21.3.4" etag="I4RBKyF3UJmk-POuM8LJ" type="github">
  <diagram name="PÃ¡gina-1" id="iNaVJ4ki2ZXxPQHuFq8B">
    <mxGraphModel>
      <root>
        <mxCell id="0" />
        <mxCell id="1" parent="0" />
      </root>
    </mxGraphModel>
  </diagram>
</mxfile>
